<?xml version="1.0" encoding="utf-8"?>
<svg version="1.1" xmlns:xlink="http://www.w3.org/1999/xlink" width="12px" height="12px" viewBox="137 424  12 12" xmlns="http://www.w3.org/2000/svg">
  <path d="M 137.5 426  A 1.5 1.5 0 0 1 139 424.5 L 147 424.5  A 1.5 1.5 0 0 1 148.5 426 L 148.5 434  A 1.5 1.5 0 0 1 147 435.5 L 139 435.5  A 1.5 1.5 0 0 1 137.5 434 L 137.5 426  Z " fill-rule="nonzero" fill="#ffffff" stroke="none" />
  <path d="M 137.5 426  A 1.5 1.5 0 0 1 139 424.5 L 147 424.5  A 1.5 1.5 0 0 1 148.5 426 L 148.5 434  A 1.5 1.5 0 0 1 147 435.5 L 139 435.5  A 1.5 1.5 0 0 1 137.5 434 L 137.5 426  Z " stroke-width="1" stroke="#797979" fill="none" />
  <path d="M 139.571428571429 430  L 142.142857142857 432.571428571429  " stroke-width="2.57142857142857" stroke="#797979" fill="none" />
  <path d="M 142.142857142857 432.571428571429  L 146.428571428571 426.571428571429  " stroke-width="2.57142857142857" stroke="#797979" fill="none" />
</svg>